<svg xmlns="http://www.w3.org/2000/svg" xmlns:xlink="http://www.w3.org/1999/xlink" viewBox="0 0 208.76 77.32"><defs><style>.a{fill:#ee2e24;}.a,.b,.c,.d,.e,.f{fill-rule:evenodd;}.b{fill:url(#a);}.c{fill:url(#b);}.d{fill:url(#c);}.e{fill:url(#d);}.f{fill:url(#e);}</style><linearGradient id="a" x1="213.22" y1="184.45" x2="214.02" y2="151.69" gradientUnits="userSpaceOnUse"><stop offset="0" stop-color="#ee2e24"/><stop offset="1" stop-color="#fbd008"/></linearGradient><linearGradient id="b" x1="203.73" y1="200.52" x2="222.34" y2="181.15" gradientUnits="userSpaceOnUse"><stop offset="0" stop-color="#fbd008"/><stop offset="1" stop-color="#ee2e24"/></linearGradient><linearGradient id="c" x1="219.95" y1="185.32" x2="226.06" y2="169.17" xlink:href="#a"/><linearGradient id="d" x1="208.81" y1="177.09" x2="204.53" y2="168.83" xlink:href="#a"/><linearGradient id="e" x1="221.4" y1="170.21" x2="225.04" y2="165.09" xlink:href="#a"/></defs><path class="a" d="M197.94,215.42l12.12,3.09-14.29,3.65c-6.44-3.27-4.22-8.37,2.17-6.74Zm20.29,5.18-14.79,5c5.49,2.4,14,6,26,10.52,9.3,3.49,16.25-8.46,4.35-11.5Z" transform="translate(-187.8 -159.39)"/><path class="a" d="M230,215.42l-35.85,9.15c-11.9,3-5,15,4.35,11.5,18.87-7.08,29-11.91,32.58-13.4C238.8,219.45,236.68,213.7,230,215.42Z" transform="translate(-187.8 -159.39)"/><path class="a" d="M253.75,219.94c3.26,0,5-1.73,5-5v-1.79c0-2.36-.81-3.8-2.45-4.36v-.06c1.41-.57,2.12-2,2.12-4.1v-.83c0-3.26-1.49-4.81-4.87-4.81h-5v20.91ZM251.87,202h1.58c1.11,0,1.68.72,1.68,2.16v1.16c0,1.58-.66,2.21-2,2.21h-1.28V202Zm0,8.52h1.46c1.53,0,2.12.63,2.12,2.54v1.82c0,1.52-.53,2.06-1.7,2.06h-1.88v-6.42Zm9.75,4.45c0,3.35,1.76,5.26,5,5.26s5-1.91,5-5.26V204c0-3.35-1.77-5.26-5-5.26s-5,1.91-5,5.26v11Zm6.69.21c0,1.37-.57,2.06-1.7,2.06s-1.71-.69-1.71-2.06V203.78c0-1.38.57-2.06,1.71-2.06s1.7.68,1.7,2.06v11.41Zm9.63,4.75V204.67L282,219.94h3.32V199h-2.93v12.51L279.07,199H275v20.91Zm14.32,0v-9.11h4.24v-3h-4.24V202h5.41v-3H289v20.91Zm11.48,0V199h-3.29v20.91Zm6.94,0v-9h1.14c1.52,0,2.06.65,2.06,2.57v3.82a8.23,8.23,0,0,0,.3,2.57h3.34a6.8,6.8,0,0,1-.36-2.54v-3.67c0-2.48-.71-4-2.18-4.43v-.06c1.44-.56,2.15-1.94,2.15-4.12v-1.28c0-3.26-1.49-4.81-4.87-4.81h-4.87v20.91Zm0-17.93h1.49c1.11,0,1.68.72,1.68,2.16v1.61c0,1.58-.66,2.21-2,2.21h-1.19v-6Zm18.92,17.93v-3h-5.68v-6.42h4.51v-3h-4.51V202h5.68v-3h-9v20.91Zm16.44,0v-3h-5.41V199h-3.28v20.91Zm11.75,0v-3h-5.68v-6.42h4.52v-3h-4.52V202h5.68v-3h-9v20.91Zm13.45,0L367.84,199h-4.45L360,219.94h3l.57-4.09h3.79l.57,4.09Zm-5.76-17.48L367,213h-3l1.47-10.55ZM379,219.94c3.26,0,4.9-1.73,4.9-5.17V204.2c0-3.44-1.64-5.17-4.9-5.17h-5v20.91ZM377.29,202H379c1.11,0,1.67.69,1.67,2v10.87c0,1.34-.56,2-1.67,2h-1.67V202Zm14.32,18.23c3.22,0,5-1.88,5-5.32a7.05,7.05,0,0,0-.81-3.44,12,12,0,0,0-2.84-3.28,13.33,13.33,0,0,1-2.27-2.39,3.74,3.74,0,0,1-.63-2.09c0-1.35.57-2,1.68-2s1.64.68,1.64,2.06v1.07h3.11V204c0-3.38-1.65-5.26-4.78-5.26s-4.9,1.88-4.9,5.2a6.75,6.75,0,0,0,.8,3.28,14.21,14.21,0,0,0,2.87,3.26,10.94,10.94,0,0,1,2.24,2.42,4.1,4.1,0,0,1,.63,2.27c0,1.4-.57,2.09-1.73,2.09s-1.71-.69-1.71-2v-1.43h-3.1V215C386.77,218.36,388.41,220.24,391.61,220.24Z" transform="translate(-187.8 -159.39)"/><path class="b" d="M215.1,159.39a23.89,23.89,0,0,1-8.4,19c5.64,11.52-2.64,12.16.08,19.44L214,184.43l3.46-6.41c4-7.34,4.32-11.42-2.14-18.39l-.06-.07Z" transform="translate(-187.8 -159.39)"/><path class="c" d="M214,193.55l7.18,4.18,0,.07a7.53,7.53,0,0,0-1.84-8.16c-1-7.06,4.63-13.63,9.41-16.93-4.56,8.23.37,9.61,2.6,16.19a18.31,18.31,0,0,1-28.48,21.26c-17.13-13.55,1.32-25.17-2.25-38.58a18.48,18.48,0,0,1,6,6.76c5.82,11.09-2.42,12.94.09,19.46l0-.07Z" transform="translate(-187.8 -159.39)"/><path class="d" d="M228.33,168.12c-6.08,2.18-11.91,10.32-14.33,16.31l7.21,13.37C225.26,194,216,179.33,228.33,168.12Z" transform="translate(-187.8 -159.39)"/><path class="e" d="M203.89,163.56q-3.46,6.48,3.51,11.67C208.94,169.71,203.8,170.41,203.89,163.56Z" transform="translate(-187.8 -159.39)"/><path class="f" d="M227.76,163.32q-4.69-.07-5.62,5.41C225.74,168,223.83,165.27,227.76,163.32Z" transform="translate(-187.8 -159.39)"/></svg>